<mxfile host="app.diagrams.net" modified="2021-12-03T18:42:11.574Z" agent="5.0 (Windows NT 10.0; Win64; x64) AppleWebKit/537.36 (KHTML, like Gecko) Chrome/96.0.4664.45 Safari/537.36" etag="Zsd0-oXDOBKZK-0LOcLR" version="15.9.1" type="github">
  <diagram id="GCInLrB2yuKAOFmSUDm0" name="Page-1">
    <mxGraphModel dx="1422" dy="771" grid="1" gridSize="10" guides="1" tooltips="1" connect="1" arrows="1" fold="1" page="1" pageScale="1" pageWidth="850" pageHeight="1100" math="0" shadow="0">
      <root>
        <mxCell id="0" />
        <mxCell id="1" parent="0" />
        <mxCell id="hItAO8K_OrTGmqBQs6zK-1" value="CommitLog" style="swimlane;" vertex="1" parent="1">
          <mxGeometry width="380" height="680" as="geometry" />
        </mxCell>
        <mxCell id="hItAO8K_OrTGmqBQs6zK-10" value="putMessage" style="swimlane;" vertex="1" parent="hItAO8K_OrTGmqBQs6zK-1">
          <mxGeometry x="80" y="70" width="200" height="200" as="geometry" />
        </mxCell>
        <mxCell id="hItAO8K_OrTGmqBQs6zK-11" value="modify Topic &amp;amp; QueueId&lt;br&gt;to&amp;nbsp;" style="whiteSpace=wrap;html=1;" vertex="1" parent="hItAO8K_OrTGmqBQs6zK-10">
          <mxGeometry x="40" y="40" width="140" height="60" as="geometry" />
        </mxCell>
      </root>
    </mxGraphModel>
  </diagram>
</mxfile>
